<?xml version="1.0" encoding="UTF-8"?>
<svg id="Layer_1" data-name="Layer 1" xmlns="http://www.w3.org/2000/svg" viewBox="0 0 1255.11 914.16">
  <defs>
    <style>
      .cls-1 {
        fill: #50ae48;
      }

      .cls-1, .cls-2 {
        stroke-width: 0px;
      }

      .cls-2 {
        fill: #326eb0;
      }
    </style>
  </defs>
  <g>
    <path class="cls-2" d="M588.13,726.83c0,2.36-1.93,4.29-4.29,4.29h-103.93c-2.36,0-3.08-1.5-1.59-3.34l32.71-40.37c1.49-1.83,4.63-3.34,7-3.34h65.81c2.36,0,4.29,1.93,4.29,4.29v38.46Z"/>
    <path class="cls-2" d="M588.13,669.72c0,2.36-1.93,4.29-4.29,4.29h-58.04c-2.36,0-3.08-1.5-1.59-3.34l32.71-40.37c1.49-1.83,4.63-3.34,7-3.34h19.93c2.36,0,4.29,1.93,4.29,4.29v38.46Z"/>
    <g>
      <path class="cls-2" d="M630.11,783.44v-151.79c0-2.61,2.12-4.73,4.73-4.73h18.54c2.61,0,4.73,2.12,4.73,4.73v151.79c0,2.61-2.12,4.73-4.73,4.73h-18.54c-2.61,0-4.73-2.12-4.73-4.73Z"/>
      <path class="cls-2" d="M738.95,788.17c-23.38,0-42.61-19.87-40.19-43.63,2.07-20.39,19.73-35.64,40.22-35.64h102.98s.07-.03.07-.07v-6.34c0-9.45-7.42-16.75-16.75-16.75h-111.76c-2.61,0-4.73-2.12-4.73-4.73v-18.54c0-2.61,2.12-4.73,4.73-4.73h111.76c24.62,0,44.75,20.01,44.75,44.75v80.95c0,2.61-2.12,4.73-4.73,4.73h-126.35ZM841.96,736.9h-103.34c-6.63,0-12.2,5.35-12.06,11.97.14,6.49,5.04,11.3,11.58,11.3h103.83s.07-.03.07-.07v-23.14s-.03-.07-.07-.07Z"/>
      <path class="cls-2" d="M915.43,783.44v-151.79c0-2.61,2.12-4.73,4.73-4.73h18.54c2.61,0,4.73,2.12,4.73,4.73v29.24s.05.08.09.06c5.26-2.11,10.96-3.22,16.66-3.22h76.73c24.75,0,44.82,20.07,44.82,44.82v40.79c0,24.75-20.07,44.82-44.82,44.82h-116.75c-2.61,0-4.73-2.12-4.73-4.73ZM1053.73,743.35v-40.79c0-9.29-7.53-16.82-16.82-16.82h-76.73c-9.44,0-16.75,7.31-16.75,16.64v57.73s.03.07.07.07h93.41c9.29,0,16.82-7.53,16.82-16.82Z"/>
    </g>
    <path class="cls-2" d="M588.13,783.93c0,2.36-1.93,4.29-4.29,4.29h-148.88c-2.36,0-3.08-1.5-1.59-3.34l32.71-40.37c1.49-1.83,4.63-3.34,7-3.34h110.77c2.36,0,4.29,1.93,4.29,4.29v38.46Z"/>
    <path class="cls-1" d="M411.77,784.89c-1.49,1.83-4.63,3.34-7,3.34h-227.1c-2.36,0-4.29-1.93-4.29-4.29v-38.46c0-2.36,1.93-4.29,4.29-4.29h265.21c2.36,0,3.08,1.5,1.59,3.34l-32.71,40.37Z"/>
    <path class="cls-1" d="M456.35,727.79c-1.49,1.83-4.63,3.34-7,3.34H177.68c-2.36,0-4.29-1.93-4.29-4.29v-38.46c0-2.36,1.93-4.29,4.29-4.29h309.79c2.36,0,3.08,1.5,1.59,3.34l-32.71,40.37Z"/>
    <path class="cls-1" d="M501.33,670.68c-1.49,1.83-4.63,3.34-7,3.34H177.68c-2.36,0-4.29-1.93-4.29-4.29v-14.94c0-2.36,1.93-4.29,4.29-4.29h215.03c2.36,0,5.39-1.59,6.74-3.53l11.39-16.46c1.34-1.94,4.37-3.53,6.74-3.53h114.88c2.36,0,3.08,1.5,1.59,3.34l-32.71,40.37Z"/>
  </g>
  <g>
    <path class="cls-2" d="M522.11,338.93c-3.1-4.34-6.5-8.96-9.75-13.69-11.56-16.79-22.6-33.88-26.88-54.22-1.46-6.94-2.49-14.07-2.7-21.15-.55-18.92-2.45-38,2.04-56.66,6.02-25.06,20.83-43.71,43.19-56.43,13.67-7.77,28.47-10.87,44.07-10.85,21.25.03,42.5,0,63.74.01,40.84.04,74.39,24.43,86.16,63.43,2.41,8,3.09,16.72,3.3,25.14.47,18.96.18,37.94.14,56.91-.02,11.44-5.16,16.76-16.6,16.84-17.91.13-35.82.12-53.73,0-11.07-.08-16.36-5.47-16.53-16.56-.22-14.56-.02-29.14-.6-43.68-.49-12.12-6.06-18.6-17.88-19.59-10.98-.92-22.16-.8-33.14.17-10.98.96-16.13,7.65-17.32,18.77-2.05,19.15,2.53,35.94,14.65,51.37,31,39.5,61.32,79.53,91.91,119.35.53.69,1.16,1.3,2.17,2.43,3.38-8.14,6.56-15.77,9.71-23.4,4.86-11.77,9.8-23.5,14.52-35.33,3.87-9.69,10.79-14.63,21.27-14.6,15.94.03,31.87-.08,47.81.03,13.36.09,19.7,8.42,16.16,21.33-1.4,5.09-3.16,10.15-5.37,14.94-15.66,33.99-31.44,67.92-47.33,101.8-1.39,2.97-1.43,4.94.62,7.68,20.33,27.21,40.49,54.56,60.71,81.85,3.67,4.95,6.59,10.1,6.3,16.62-.32,7.35-5.43,13.43-12.85,13.49-22.86,0-45.62.03-68.61,0-6.57-.02-11.63-3.54-15.57-8.54-4.6-5.84-9.18-11.7-13.78-17.54-1.02-1.29-2.07-2.55-2.63-3.23-7,6.19-13.41,12.66-20.62,18.05-11.08,8.28-24.48,11.26-38.02,11.32-23.56.1-47.65-.05-71.42-.03-39.21-.32-72.72-25.62-83.89-63.33-2.33-7.87-3.23-16.41-3.31-24.65-.29-28.37-.63-56.78.41-85.12.91-24.6,9.85-46.24,30.09-61.66,5.83-4.44,12.76-7.42,19.54-11.27ZM568.5,400.46s-6.86,10.71-7.72,16.47c-1.43,9.54-1.77,19.3-1.89,28.97-.15,11.51.02,23.06.75,34.55.82,12.9,7.8,20.49,20.71,21.82,10.07,1.04,20.3.59,30.45.63,10.31.04,17.83-4.76,23.18-13.49,2.11-3.44,1.87-5.67-.77-9.06-2.15-2.77-64.72-79.89-64.72-79.89Z"/>
    <path class="cls-2" d="M299.74,584.94c-16.14.01-31.2,0-48.52,0-25.32,0-45.12-15.87-60.39-35.83-12.48-16.32-17.36-35.04-17.17-55.38.17-18.21,0-36.42.05-54.63.03-11.16,5.18-16.5,16.37-16.59,18.06-.14,37.6-.14,55.66,0,8.92.07,14.67,6.51,14.82,15.43.23,13.09,0,26.94.56,40.01.58,13.41,8.16,22.61,21.54,24.08,11.49,1.26,23.37,1.1,34.86-.22,12.24-1.41,19.69-10.79,20.21-23.26.41-9.99.27-20.01.11-30.01-.2-12-5.54-21.35-15.76-27.53-22.81-13.79-45.8-27.29-68.72-40.9-11.32-6.72-22.79-13.21-34.14-19.89-28.48-16.75-43.29-42.34-44.83-75.24-1.28-27.38-1.39-54.98.53-82.31,2.08-29.66,18.99-51.07,44.38-65.84,13.72-7.98,28.76-10.93,44.5-10.9,23.67.04,47.35-.04,71.02.02,38.81.1,66.35,18.23,83.23,52.77,4.55,9.31,6.87,19.47,6.96,29.91.18,21.55.19,41.72.11,63.27-.03,9.18-5.73,16.07-14.86,16.21-19.42.29-38.17.29-57.58,0-8.75-.13-14-5.66-14.24-14.48-.3-11.07-.06-22.15-.18-33.23-.04-3.78-.12-7.62-.78-11.33-2.02-11.26-8.93-19.03-20.38-20.2-11.52-1.17-23.35-1.2-34.87-.06-11.76,1.17-19.72,9.13-20.71,20.84-1.07,12.63-.72,25.46.08,38.13.61,9.62,6.96,16.13,15.08,20.92,15.67,9.25,31.31,18.54,46.94,27.86,20.32,12.11,40.73,24.07,60.87,36.48,11.03,6.8,20.7,15.34,28.11,26.17,6.85,10.01,10.99,21.29,11.34,33.16.9,30.62,2.07,61.32.68,91.88-1.41,31.03-18.11,53.99-44.71,69.64-13.54,7.96-28.44,11.04-44.03,11.04h-36.11Z"/>
    <path class="cls-1" d="M983.48,478.34h-64.14c-.82,9.35-1.64,18.53-2.43,27.71-1.8,21-3.49,42.01-5.43,63-1,10.78-6.93,15.87-17.84,15.88-17.76,0-35.51.03-53.27,0-10.06-.02-15.32-5.42-14.44-15.47,1.65-18.72,3.79-37.4,5.79-56.08,2.25-21.1,4.57-42.19,6.87-63.29,2.59-23.81,5.21-47.61,7.8-71.42,2.26-20.79,4.5-41.59,6.76-62.38,2.61-23.96,5.23-47.91,7.84-71.87,2.26-20.79,4.49-41.59,6.74-62.39,1.56-14.47,2.96-28.95,4.77-43.39.78-6.23,4.45-10.58,10.88-11.91,2.5-.51,5.1-.74,7.66-.74,42.04-.04,84.08-.03,126.12-.03,12.05,0,16.93,3.89,18.39,15.93,2.57,21.06,4.67,42.18,6.97,63.27,2.59,23.81,5.19,47.61,7.78,71.42,2.26,20.79,4.51,41.59,6.78,62.38,2.61,23.96,5.22,47.91,7.82,71.87,2.26,20.79,4.49,41.59,6.75,62.38,2.6,23.96,5.28,47.91,7.81,71.87.91,8.59,1.75,17.2,2.18,25.83.43,8.51-4.82,13.96-13.25,14-20.34.09-40.67.09-61.01,0-8.88-.04-15-6.53-15.83-16.14-2.48-28.71-4.95-57.41-7.44-86.12-.12-1.35-.4-2.68-.65-4.31ZM976.25,396.08c0-.95.05-1.68,0-2.4-.94-10.72-1.9-21.43-2.85-32.14-1.63-18.56-3.23-37.13-4.89-55.69-2-22.34-4.02-44.67-6.09-67-.85-9.2-1.74-18.4-2.87-27.57-.45-3.64-2.12-6.67-6.42-7.12-4.62-.48-7.32,1.39-8.01,7.14-2.06,17.14-3.77,34.32-5.49,51.5-2.01,20.05-3.86,40.12-5.83,60.17-1.97,20.05-4.01,40.09-5.98,60.14-.42,4.27-.68,8.57-1.02,12.97h49.46Z"/>
  </g>
</svg>